<svg id="visual" viewBox="0 0 900 600" width="900" height="600" xmlns="http://www.w3.org/2000/svg" xmlns:xlink="http://www.w3.org/1999/xlink" version="1.1"><rect x="0" y="0" width="900" height="600" fill="#DEAEB3"></rect><path d="M0 417L13.7 418.2C27.3 419.3 54.7 421.7 82 426.8C109.3 432 136.7 440 163.8 437.2C191 434.3 218 420.7 245.2 424.5C272.3 428.3 299.7 449.7 327 450.2C354.3 450.7 381.7 430.3 409 425.7C436.3 421 463.7 432 491 441.2C518.3 450.3 545.7 457.7 573 457.8C600.3 458 627.7 451 654.8 442.7C682 434.3 709 424.7 736.2 422.8C763.3 421 790.7 427 818 434.3C845.3 441.7 872.7 450.3 886.3 454.7L900 459L900 601L886.3 601C872.7 601 845.3 601 818 601C790.7 601 763.3 601 736.2 601C709 601 682 601 654.8 601C627.7 601 600.3 601 573 601C545.7 601 518.3 601 491 601C463.7 601 436.3 601 409 601C381.7 601 354.3 601 327 601C299.7 601 272.3 601 245.2 601C218 601 191 601 163.8 601C136.7 601 109.3 601 82 601C54.7 601 27.3 601 13.7 601L0 601Z" fill="#9e83e2"></path><path d="M0 456L13.7 454.3C27.3 452.7 54.7 449.3 82 450.8C109.3 452.3 136.7 458.7 163.8 458C191 457.3 218 449.7 245.2 454.5C272.3 459.3 299.7 476.7 327 478.8C354.3 481 381.7 468 409 468.2C436.3 468.3 463.7 481.7 491 482.5C518.3 483.3 545.7 471.7 573 471.2C600.3 470.7 627.7 481.3 654.8 481.2C682 481 709 470 736.2 469.7C763.3 469.3 790.7 479.7 818 485.7C845.3 491.7 872.7 493.3 886.3 494.2L900 495L900 601L886.3 601C872.7 601 845.3 601 818 601C790.7 601 763.3 601 736.2 601C709 601 682 601 654.8 601C627.7 601 600.3 601 573 601C545.7 601 518.3 601 491 601C463.7 601 436.3 601 409 601C381.7 601 354.3 601 327 601C299.7 601 272.3 601 245.2 601C218 601 191 601 163.8 601C136.7 601 109.3 601 82 601C54.7 601 27.3 601 13.7 601L0 601Z" fill="#8c73e3"></path><path d="M0 517L13.7 513.2C27.3 509.3 54.7 501.7 82 499.2C109.3 496.7 136.7 499.3 163.8 500C191 500.7 218 499.3 245.2 495.2C272.3 491 299.7 484 327 485.7C354.3 487.3 381.7 497.7 409 504.5C436.3 511.3 463.7 514.7 491 512.2C518.3 509.7 545.7 501.3 573 499.8C600.3 498.3 627.7 503.7 654.8 504.2C682 504.7 709 500.3 736.2 500.2C763.3 500 790.7 504 818 504C845.3 504 872.7 500 886.3 498L900 496L900 601L886.3 601C872.7 601 845.3 601 818 601C790.7 601 763.3 601 736.2 601C709 601 682 601 654.8 601C627.7 601 600.3 601 573 601C545.7 601 518.3 601 491 601C463.7 601 436.3 601 409 601C381.7 601 354.3 601 327 601C299.7 601 272.3 601 245.2 601C218 601 191 601 163.8 601C136.7 601 109.3 601 82 601C54.7 601 27.3 601 13.7 601L0 601Z" fill="#7663e5"></path><path d="M0 516L13.7 519C27.3 522 54.7 528 82 528.7C109.3 529.3 136.7 524.7 163.8 522.5C191 520.3 218 520.7 245.2 521.8C272.3 523 299.7 525 327 528.7C354.3 532.3 381.7 537.7 409 538C436.3 538.3 463.7 533.7 491 528.2C518.3 522.7 545.7 516.3 573 518.2C600.3 520 627.7 530 654.8 536.3C682 542.7 709 545.3 736.2 542.2C763.3 539 790.7 530 818 526.2C845.3 522.3 872.7 523.7 886.3 524.3L900 525L900 601L886.3 601C872.7 601 845.3 601 818 601C790.7 601 763.3 601 736.2 601C709 601 682 601 654.8 601C627.7 601 600.3 601 573 601C545.7 601 518.3 601 491 601C463.7 601 436.3 601 409 601C381.7 601 354.3 601 327 601C299.7 601 272.3 601 245.2 601C218 601 191 601 163.8 601C136.7 601 109.3 601 82 601C54.7 601 27.3 601 13.7 601L0 601Z" fill="#5a54e7"></path><path d="M0 550L13.7 552.8C27.3 555.7 54.7 561.3 82 560.3C109.3 559.3 136.7 551.7 163.8 551.2C191 550.7 218 557.3 245.2 557.5C272.3 557.7 299.7 551.3 327 550.3C354.3 549.3 381.7 553.7 409 556C436.3 558.3 463.7 558.7 491 558.3C518.3 558 545.7 557 573 556.2C600.3 555.3 627.7 554.7 654.8 554.2C682 553.7 709 553.3 736.2 553C763.3 552.7 790.7 552.3 818 553.7C845.3 555 872.7 558 886.3 559.5L900 561L900 601L886.3 601C872.7 601 845.3 601 818 601C790.7 601 763.3 601 736.2 601C709 601 682 601 654.8 601C627.7 601 600.3 601 573 601C545.7 601 518.3 601 491 601C463.7 601 436.3 601 409 601C381.7 601 354.3 601 327 601C299.7 601 272.3 601 245.2 601C218 601 191 601 163.8 601C136.7 601 109.3 601 82 601C54.7 601 27.3 601 13.7 601L0 601Z" fill="#2b47e9"></path></svg>