<svg id="visual" viewBox="0 0 900 600" width="900" height="600" xmlns="http://www.w3.org/2000/svg" xmlns:xlink="http://www.w3.org/1999/xlink" version="1.1"><rect x="0" y="0" width="900" height="600" fill="#001220"></rect><path d="M0 442L21.5 438.3C43 434.7 86 427.3 128.8 417.5C171.7 407.7 214.3 395.3 257.2 390.7C300 386 343 389 385.8 398C428.7 407 471.3 422 514.2 417.8C557 413.7 600 390.3 642.8 375.8C685.7 361.3 728.3 355.7 771.2 366.5C814 377.3 857 404.7 878.5 418.3L900 432L900 601L878.5 601C857 601 814 601 771.2 601C728.3 601 685.7 601 642.8 601C600 601 557 601 514.2 601C471.3 601 428.7 601 385.8 601C343 601 300 601 257.2 601C214.3 601 171.7 601 128.8 601C86 601 43 601 21.5 601L0 601Z" fill="#fa7268"></path><path d="M0 410L21.5 409.3C43 408.7 86 407.3 128.8 412.3C171.7 417.3 214.3 428.7 257.2 437.2C300 445.7 343 451.3 385.8 449.7C428.7 448 471.3 439 514.2 441.8C557 444.7 600 459.3 642.8 461.2C685.7 463 728.3 452 771.2 452.3C814 452.7 857 464.3 878.5 470.2L900 476L900 601L878.5 601C857 601 814 601 771.2 601C728.3 601 685.7 601 642.8 601C600 601 557 601 514.2 601C471.3 601 428.7 601 385.8 601C343 601 300 601 257.2 601C214.3 601 171.7 601 128.8 601C86 601 43 601 21.5 601L0 601Z" fill="#ef5f67"></path><path d="M0 472L21.5 471C43 470 86 468 128.8 472.5C171.7 477 214.3 488 257.2 493.3C300 498.7 343 498.3 385.8 488.3C428.7 478.3 471.3 458.7 514.2 456.2C557 453.7 600 468.3 642.8 478.5C685.7 488.7 728.3 494.3 771.2 487.8C814 481.3 857 462.7 878.5 453.3L900 444L900 601L878.5 601C857 601 814 601 771.2 601C728.3 601 685.7 601 642.8 601C600 601 557 601 514.2 601C471.3 601 428.7 601 385.8 601C343 601 300 601 257.2 601C214.3 601 171.7 601 128.8 601C86 601 43 601 21.5 601L0 601Z" fill="#e34c67"></path><path d="M0 539L21.5 537.3C43 535.7 86 532.3 128.8 531.5C171.7 530.7 214.3 532.3 257.2 529.3C300 526.3 343 518.7 385.8 515.5C428.7 512.3 471.3 513.7 514.2 513.7C557 513.7 600 512.3 642.8 516.3C685.7 520.3 728.3 529.7 771.2 526.8C814 524 857 509 878.5 501.5L900 494L900 601L878.5 601C857 601 814 601 771.2 601C728.3 601 685.7 601 642.8 601C600 601 557 601 514.2 601C471.3 601 428.7 601 385.8 601C343 601 300 601 257.2 601C214.3 601 171.7 601 128.8 601C86 601 43 601 21.5 601L0 601Z" fill="#d53867"></path><path d="M0 572L21.5 567.7C43 563.3 86 554.7 128.8 553.3C171.7 552 214.3 558 257.2 560.3C300 562.7 343 561.3 385.8 561.7C428.7 562 471.3 564 514.2 566C557 568 600 570 642.8 565.7C685.7 561.3 728.3 550.7 771.2 549.8C814 549 857 558 878.5 562.5L900 567L900 601L878.5 601C857 601 814 601 771.2 601C728.3 601 685.7 601 642.8 601C600 601 557 601 514.2 601C471.3 601 428.7 601 385.8 601C343 601 300 601 257.2 601C214.3 601 171.7 601 128.8 601C86 601 43 601 21.5 601L0 601Z" fill="#c62368"></path></svg>